<?xml version="1.0" encoding="utf-8"?>
<!-- Generator: Adobe Illustrator 16.0.4, SVG Export Plug-In . SVG Version: 6.00 Build 0)  -->
<!DOCTYPE svg PUBLIC "-//W3C//DTD SVG 1.1//EN" "http://www.w3.org/Graphics/SVG/1.1/DTD/svg11.dtd">
<svg version="1.1" xmlns="http://www.w3.org/2000/svg" xmlns:xlink="http://www.w3.org/1999/xlink" x="0px" y="0px" width="243px"
	 height="91px" viewBox="0 0 243 91" enable-background="new 0 0 243 91" xml:space="preserve">
<g id="Layer_1" display="none">
	<radialGradient id="SVGID_1_" cx="-91.1987" cy="98.3652" r="29.1814" gradientUnits="userSpaceOnUse">
		<stop  offset="0" style="stop-color:#FFFFFF"/>
		<stop  offset="0.271" style="stop-color:#FDFDFE"/>
		<stop  offset="0.4127" style="stop-color:#F6F7FC"/>
		<stop  offset="0.5246" style="stop-color:#EBEBF7"/>
		<stop  offset="0.6209" style="stop-color:#DADCF0"/>
		<stop  offset="0.7071" style="stop-color:#C5C8E6"/>
		<stop  offset="0.7861" style="stop-color:#A9AFD9"/>
		<stop  offset="0.8597" style="stop-color:#8893C9"/>
		<stop  offset="0.9289" style="stop-color:#6175B7"/>
		<stop  offset="0.9924" style="stop-color:#3457A4"/>
		<stop  offset="1" style="stop-color:#2F54A1"/>
	</radialGradient>
	<circle display="inline" fill="url(#SVGID_1_)" cx="-91.199" cy="98.365" r="29.182"/>
	
		<linearGradient id="SVGID_2_" gradientUnits="userSpaceOnUse" x1="58.8887" y1="-70.3662" x2="102.7642" y2="-45.0347" gradientTransform="matrix(-4.371139e-08 1 -1 -4.371139e-08 -148.8911 17.4697)">
		<stop  offset="0" style="stop-color:#283332"/>
		<stop  offset="1" style="stop-color:#3B4848"/>
	</linearGradient>
	
		<linearGradient id="SVGID_3_" gradientUnits="userSpaceOnUse" x1="56.29" y1="-71.8662" x2="105.3617" y2="-43.5347" gradientTransform="matrix(-4.371139e-08 1 -1 -4.371139e-08 -148.8911 17.4697)">
		<stop  offset="0" style="stop-color:#575756"/>
		<stop  offset="0.043" style="stop-color:#656464"/>
		<stop  offset="0.0969" style="stop-color:#6D6D6C"/>
		<stop  offset="0.1767" style="stop-color:#706F6F"/>
		<stop  offset="0.299" style="stop-color:#575756"/>
		<stop  offset="0.8061" style="stop-color:#3C3C3B"/>
	</linearGradient>
	
		<circle display="inline" fill="url(#SVGID_2_)" stroke="url(#SVGID_3_)" stroke-width="6" stroke-miterlimit="10" cx="-91.191" cy="98.296" r="25.327"/>
</g>
<g id="Layer_2">
	<g>
		<g>
			<g>
				<path fill="#FFFFFF" d="M19.62,35.144c0.047,0.793,0.093,1.547,0.137,2.263s0.099,1.287,0.169,1.711
					c0.113,0.623,0.324,1.042,0.632,1.258c0.307,0.216,0.609,0.291,0.905,0.225c0.345-0.078,0.732-0.345,1.162-0.804
					c0.427-0.458,0.868-1.011,1.32-1.656c0.451-0.645,0.892-1.339,1.321-2.084c0.431-0.744,0.823-1.448,1.181-2.111
					s0.655-1.241,0.895-1.736c0.239-0.494,0.406-0.816,0.502-0.968c0.115-0.181,0.25-0.301,0.406-0.362
					c0.154-0.061,0.289-0.065,0.404-0.013c0.115,0.052,0.195,0.177,0.24,0.374c0.044,0.198,0,0.467-0.131,0.807
					c-0.191,0.536-0.451,1.17-0.779,1.905s-0.702,1.498-1.12,2.292c-0.419,0.794-0.872,1.582-1.357,2.364S24.52,40.1,24,40.734
					c-0.519,0.635-1.035,1.171-1.545,1.609c-0.512,0.438-1.002,0.71-1.471,0.815c-0.346,0.077-0.694,0.051-1.047-0.077
					c-0.354-0.129-0.689-0.326-1.007-0.591c-0.318-0.266-0.591-0.58-0.813-0.945c-0.225-0.364-0.368-0.747-0.433-1.147
					c-0.015-0.178-0.044-0.482-0.087-0.913c-0.777,1.392-1.614,2.544-2.512,3.458c-0.897,0.913-1.827,1.478-2.79,1.693
					c-0.346,0.078-0.736,0.074-1.169-0.011c-0.434-0.084-0.849-0.289-1.246-0.615c-0.396-0.326-0.765-0.788-1.106-1.385
					c-0.341-0.597-0.589-1.358-0.744-2.283c-0.246-1.448-0.266-2.869-0.059-4.263c0.206-1.394,0.579-2.649,1.12-3.769
					c0.54-1.118,1.223-2.062,2.049-2.83s1.721-1.26,2.684-1.475c0.419-0.094,0.824-0.074,1.218,0.058
					c0.393,0.133,0.749,0.338,1.07,0.616c0.321,0.278,0.606,0.597,0.856,0.956c0.248,0.359,0.448,0.703,0.6,1.032
					c0.012-0.754,0.016-1.494,0.01-2.218c-0.007-0.724-0.005-1.411,0.005-2.062c0.042-0.968,0.08-2.013,0.114-3.135
					c0.042-0.968,0.092-2.081,0.148-3.338c0.055-1.256,0.135-2.583,0.236-3.979c0.203-0.252,0.404-0.453,0.604-0.602
					s0.393-0.27,0.58-0.363c0.205-0.124,0.406-0.208,0.604-0.252c0.246-0.055,0.475-0.073,0.687-0.057
					c0.212,0.018,0.415,0.141,0.607,0.37c0.193,0.229,0.373,0.597,0.539,1.104c0.165,0.507,0.323,1.21,0.472,2.11
					c0.194,1.098,0.268,2.325,0.222,3.683c-0.046,1.358-0.188,2.783-0.424,4.274c-0.236,1.492-0.554,3-0.951,4.528
					C20.626,32.255,20.158,33.728,19.62,35.144z M17.543,36.114c-0.007-0.491-0.019-0.98-0.037-1.469
					c-0.018-0.488-0.021-0.992-0.008-1.514c-0.045,0.036-0.082,0.07-0.113,0.102c-0.031,0.034-0.068,0.068-0.113,0.104
					c-0.244,0.185-0.431,0.22-0.559,0.106c-0.13-0.114-0.229-0.319-0.293-0.615c-0.034-0.148-0.106-0.41-0.216-0.787
					c-0.11-0.377-0.267-0.757-0.469-1.14c-0.202-0.382-0.449-0.703-0.739-0.962c-0.292-0.259-0.636-0.344-1.03-0.256
					c-0.567,0.127-1.082,0.547-1.545,1.259c-0.463,0.713-0.861,1.541-1.194,2.483c-0.334,0.943-0.567,1.922-0.703,2.937
					c-0.137,1.016-0.146,1.898-0.029,2.65c0.215,1.196,0.553,2.014,1.016,2.455c0.461,0.441,0.988,0.595,1.581,0.463
					c0.444-0.1,0.892-0.381,1.346-0.846c0.454-0.464,0.879-1,1.273-1.606c0.396-0.606,0.751-1.218,1.067-1.833
					C17.094,37.031,17.349,36.521,17.543,36.114z"/>
			</g>
		</g>
		<g>
			<g>
				<path fill="#FFFFFF" d="M27.678,26.149c0.09-0.175,0.296-0.351,0.62-0.527c0.323-0.176,0.663-0.336,1.02-0.481
					c0.356-0.145,0.687-0.257,0.994-0.339c0.305-0.081,0.484-0.115,0.54-0.101c0.029,0.019,0.026,0.292-0.011,0.819
					c-0.038,0.527-0.093,1.148-0.167,1.864c-0.072,0.716-0.154,1.454-0.243,2.212c-0.089,0.759-0.146,1.374-0.171,1.846
					c-0.024,0.472-0.061,1.005-0.108,1.599c-0.049,0.594-0.081,1.172-0.098,1.732c-0.019,0.562,0.002,1.082,0.058,1.562
					c0.055,0.48,0.172,0.83,0.351,1.049c0.189,0.269,0.371,0.441,0.544,0.52s0.346,0.098,0.519,0.059
					c0.494-0.11,1.056-0.521,1.688-1.233c0.632-0.711,1.252-1.53,1.861-2.457c0.608-0.927,1.159-1.854,1.652-2.78
					c0.492-0.927,0.846-1.66,1.062-2.201c0.143-0.291,0.311-0.497,0.503-0.618s0.369-0.147,0.526-0.079
					c0.158,0.069,0.268,0.212,0.33,0.432s0.039,0.497-0.067,0.832c-0.239,0.779-0.636,1.73-1.188,2.852s-1.162,2.217-1.831,3.286
					c-0.668,1.07-1.346,2.006-2.035,2.807c-0.688,0.802-1.289,1.273-1.802,1.414c-0.415,0.119-0.843,0.143-1.286,0.074
					c-0.443-0.07-0.863-0.208-1.26-0.418s-0.749-0.48-1.057-0.813c-0.308-0.333-0.521-0.706-0.64-1.121
					c-0.212-0.6-0.401-1.446-0.567-2.536s-0.277-2.219-0.33-3.386c-0.054-1.167-0.04-2.291,0.043-3.373
					C27.21,27.563,27.393,26.731,27.678,26.149z M31.022,17.12c-0.014,0.289-0.097,0.585-0.248,0.891s-0.339,0.569-0.562,0.787
					c-0.224,0.219-0.466,0.383-0.727,0.493c-0.261,0.11-0.493,0.11-0.699,0.001c-0.606-0.279-0.974-0.644-1.101-1.096
					c-0.126-0.451-0.112-0.907,0.044-1.37c0.155-0.462,0.388-0.876,0.693-1.244c0.307-0.366,0.59-0.605,0.851-0.715
					c0.262-0.109,0.502-0.105,0.724,0.013c0.22,0.12,0.409,0.297,0.566,0.535c0.155,0.237,0.275,0.515,0.36,0.833
					S31.041,16.857,31.022,17.12z"/>
			</g>
		</g>
		<g>
			<g>
				<path fill="#FFFFFF" d="M36.711,38.552c-0.111,0.31-0.263,0.532-0.454,0.666c-0.19,0.132-0.372,0.187-0.548,0.161
					c-0.174-0.026-0.307-0.133-0.4-0.318c-0.094-0.187-0.1-0.444-0.019-0.774c0.042-0.165,0.133-0.535,0.276-1.111
					c0.145-0.576,0.313-1.269,0.508-2.077c0.195-0.808,0.407-1.686,0.636-2.63c0.229-0.945,0.449-1.844,0.661-2.695
					c0.212-0.85,0.41-1.614,0.596-2.291c0.186-0.676,0.322-1.167,0.41-1.472c-0.328-0.186-0.553-0.324-0.676-0.413
					c-0.124-0.089-0.252-0.313-0.385-0.672c-0.121-0.31-0.142-0.746-0.059-1.309c0.081-0.562,0.229-1.12,0.441-1.673
					s0.479-1.046,0.797-1.48c0.316-0.434,0.66-0.692,1.031-0.775c0.691-0.155,1.229-0.042,1.611,0.339
					c0.383,0.381,0.652,0.8,0.807,1.258c0.121,0.31,0.187,0.723,0.2,1.238c0.011,0.516-0.074,1.001-0.258,1.457
					c0.085,0.033,0.195,0.067,0.333,0.101c0.138,0.034,0.342,0.021,0.613-0.04c0.395-0.088,0.667-0.175,0.816-0.261
					c0.149-0.085,0.396-0.166,0.742-0.244c0.42-0.094,0.789-0.066,1.107,0.083c0.319,0.149,0.599,0.359,0.84,0.628
					c0.242,0.271,0.445,0.575,0.613,0.913c0.166,0.339,0.295,0.653,0.386,0.944c0.212,0.601,0.194,1.278-0.051,2.033
					c-0.246,0.754-0.563,1.591-0.955,2.507c-0.236,0.571-0.456,1.204-0.664,1.898c-0.208,0.695-0.232,1.283-0.071,1.765
					c0.121,0.311,0.265,0.55,0.433,0.72c0.168,0.17,0.534,0.191,1.104,0.064c0.419-0.094,0.848-0.352,1.284-0.773
					c0.438-0.421,0.867-0.932,1.29-1.533c0.423-0.6,0.829-1.248,1.218-1.944c0.389-0.695,0.743-1.371,1.062-2.026
					c0.32-0.655,0.584-1.239,0.794-1.752s0.366-0.885,0.47-1.116c0.08-0.225,0.209-0.397,0.391-0.515
					c0.181-0.118,0.354-0.157,0.518-0.116c0.165,0.042,0.291,0.169,0.378,0.382c0.086,0.214,0.06,0.531-0.079,0.951
					c-0.093,0.28-0.259,0.732-0.494,1.354c-0.236,0.624-0.533,1.325-0.891,2.104c-0.356,0.779-0.766,1.59-1.225,2.432
					c-0.46,0.841-0.964,1.628-1.514,2.36c-0.549,0.732-1.12,1.358-1.717,1.881c-0.596,0.522-1.203,0.852-1.819,0.99
					c-0.643,0.143-1.2,0.138-1.675-0.015c-0.476-0.153-0.882-0.38-1.221-0.679c-0.34-0.3-0.613-0.653-0.821-1.061
					c-0.207-0.406-0.34-0.798-0.398-1.174c-0.042-0.302-0.032-0.635,0.029-0.998c0.061-0.363,0.146-0.745,0.25-1.144
					c0.104-0.399,0.222-0.801,0.353-1.207c0.128-0.404,0.241-0.799,0.337-1.184c0.259-0.809,0.462-1.496,0.608-2.06
					s0.181-1.019,0.104-1.364c-0.051-0.222-0.145-0.409-0.281-0.56c-0.137-0.15-0.317-0.201-0.539-0.151
					c-0.148,0.033-0.253,0.063-0.311,0.089c-0.06,0.026-0.12,0.046-0.182,0.06c-0.061,0.014-0.146,0.04-0.255,0.076
					c-0.108,0.038-0.273,0.081-0.495,0.13c-0.321,0.072-0.604,0.083-0.848,0.034c-0.244-0.049-0.471-0.076-0.68-0.082
					c-0.06,0.195-0.199,0.615-0.417,1.26c-0.22,0.646-0.472,1.401-0.757,2.268c-0.286,0.868-0.588,1.778-0.905,2.73
					c-0.318,0.953-0.619,1.842-0.9,2.669c-0.281,0.828-0.519,1.529-0.715,2.104C36.887,38.092,36.763,38.437,36.711,38.552z"/>
			</g>
		</g>
		<g>
			<g>
				<path fill="#FFFFFF" d="M65.127,22.554c0.065-0.17,0.175-0.292,0.328-0.365c0.151-0.073,0.285-0.083,0.4-0.031
					c0.115,0.052,0.197,0.163,0.25,0.333c0.051,0.17,0.035,0.42-0.047,0.749c-0.284,1.049-0.706,2.206-1.265,3.471
					c-0.56,1.266-1.177,2.473-1.854,3.622c-0.675,1.149-1.364,2.126-2.065,2.931c-0.7,0.804-1.335,1.271-1.903,1.398
					c-0.813,0.182-1.529,0.173-2.144-0.026c-0.615-0.2-1.129-0.499-1.542-0.899c-0.414-0.399-0.745-0.864-0.992-1.392
					c-0.248-0.527-0.4-1.031-0.455-1.512c-0.064-0.399-0.136-1.129-0.217-2.187c-0.081-1.057-0.148-2.286-0.203-3.687
					c-0.054-1.4-0.1-2.906-0.136-4.518c-0.036-1.611-0.042-3.172-0.017-4.681c-0.409,0.144-0.817,0.287-1.227,0.43
					c-0.408,0.144-0.785,0.253-1.131,0.331c-0.79,0.177-1.557,0.251-2.302,0.223c-0.745-0.027-1.309-0.089-1.693-0.185
					c-0.22-0.054-0.337-0.177-0.354-0.368c-0.017-0.191,0.017-0.393,0.098-0.605c0.083-0.213,0.2-0.408,0.355-0.585
					c0.154-0.177,0.306-0.283,0.454-0.315c0.48-0.056,0.996-0.125,1.547-0.21c0.551-0.084,1.145-0.21,1.781-0.379
					c0.463-0.129,0.906-0.267,1.327-0.414c0.42-0.146,0.832-0.302,1.235-0.471c0.056-1.256,0.14-2.357,0.253-3.302
					c0.112-0.945,0.254-1.618,0.423-2.019c0.046-0.14,0.189-0.282,0.43-0.427c0.239-0.144,0.504-0.269,0.791-0.372
					c0.288-0.104,0.571-0.167,0.852-0.19s0.497,0.025,0.655,0.145c0.167,0.17,0.329,0.665,0.487,1.485
					c0.157,0.82,0.253,1.887,0.288,3.201c1.036-0.232,1.969-0.382,2.796-0.451c0.826-0.068,1.539-0.097,2.138-0.089
					c0.599,0.009,1.085,0.043,1.461,0.101c0.376,0.059,0.656,0.093,0.84,0.104c0.183,0.011,0.303,0.114,0.36,0.308
					c0.057,0.195,0.064,0.407,0.025,0.636c-0.039,0.229-0.142,0.44-0.306,0.632c-0.165,0.192-0.376,0.292-0.633,0.297
					c-0.253,0.031-0.542,0.043-0.866,0.039c-0.326-0.005-0.71,0.017-1.152,0.063c-0.443,0.048-0.966,0.113-1.569,0.196
					c-0.604,0.083-1.3,0.213-2.09,0.39c-0.148,0.033-0.313,0.077-0.496,0.13c-0.183,0.054-0.372,0.103-0.569,0.147
					c-0.012,0.417-0.017,0.827-0.018,1.229c-0.001,0.402-0.028,0.83-0.082,1.282c-0.1,1.059-0.23,2.216-0.391,3.469
					c-0.144,1.095-0.328,2.354-0.554,3.779s-0.494,2.948-0.805,4.573c0.09,1.095,0.288,1.899,0.598,2.413
					c0.31,0.514,0.627,0.865,0.955,1.05c0.381,0.2,0.809,0.26,1.284,0.179c0.381-0.033,0.802-0.263,1.264-0.691
					c0.462-0.427,0.918-0.963,1.37-1.609c0.451-0.646,0.898-1.341,1.341-2.088c0.441-0.747,0.843-1.472,1.205-2.175
					c0.361-0.703,0.673-1.336,0.936-1.9C64.841,23.181,65.023,22.784,65.127,22.554z"/>
			</g>
		</g>
		<g>
			<g>
				<path fill="#FFFFFF" d="M71.69,16.614c0.267-0.318,0.538-0.58,0.816-0.785c0.278-0.205,0.535-0.359,0.771-0.464
					c0.255-0.135,0.521-0.22,0.798-0.257c0.677-0.099,1.137,0.018,1.381,0.353c0.242,0.334,0.394,0.922,0.453,1.765
					c0.02,0.437-0.01,1-0.088,1.691s-0.163,1.533-0.252,2.525c-0.089,0.992-0.168,2.117-0.236,3.377
					c-0.067,1.259-0.084,2.663-0.049,4.209c-0.026,1.275-0.035,2.742-0.027,4.399c0.014,1.448,0.034,3.193,0.062,5.234
					c0.029,2.041,0.091,4.374,0.186,6.996c0.014,0.645-0.171,1.062-0.556,1.252c-0.386,0.189-0.822,0.235-1.312,0.138
					c-0.194-0.061-0.38-0.136-0.556-0.226c-0.151-0.096-0.318-0.208-0.502-0.334c-0.185-0.128-0.356-0.316-0.516-0.565
					c0.104-2.2,0.182-4.2,0.232-6c0.05-1.8,0.107-3.368,0.173-4.704c0.044-1.539,0.097-2.924,0.158-4.156
					c0.008-0.546,0.01-1.084,0.008-1.615c-0.002-0.531,0.003-1.056,0.017-1.578c-0.205,0.59-0.44,1.161-0.705,1.712
					c-0.266,0.553-0.582,1.051-0.948,1.496c-0.367,0.444-0.783,0.817-1.248,1.115c-0.465,0.298-0.978,0.472-1.536,0.519
					c-1.372,0.125-2.426-0.157-3.164-0.847c-0.737-0.69-1.215-1.698-1.434-3.022c-0.091-0.524-0.145-1.108-0.159-1.753
					c-0.014-0.645-0.011-1.267,0.01-1.868c0.021-0.601,0.049-1.145,0.082-1.632c0.033-0.487,0.065-0.837,0.096-1.052
					c0.086-1.003,0.123-1.855,0.109-2.551c-0.014-0.697-0.243-1.229-0.688-1.596c0.297-0.299,0.588-0.526,0.878-0.683
					c0.288-0.155,0.552-0.285,0.787-0.39c0.267-0.085,0.536-0.146,0.814-0.182c0.688-0.05,1.133,0.109,1.332,0.479
					c0.199,0.371,0.288,0.973,0.268,1.807c-0.004,0.442-0.045,1.015-0.12,1.718c-0.076,0.705-0.161,1.43-0.253,2.175
					c-0.092,0.747-0.172,1.432-0.239,2.056c-0.068,0.625-0.087,1.063-0.056,1.315c0.026,1.16,0.204,2.021,0.538,2.582
					c0.333,0.561,0.833,0.766,1.499,0.617c0.32-0.072,0.646-0.293,0.978-0.666c0.332-0.372,0.648-0.838,0.951-1.398
					c0.303-0.56,0.583-1.187,0.843-1.88c0.26-0.693,0.487-1.385,0.683-2.077c0.196-0.691,0.356-1.362,0.482-2.013
					c0.127-0.65,0.199-1.223,0.219-1.72c-0.033-0.952-0.082-1.692-0.147-2.222C72.457,17.375,72.179,16.946,71.69,16.614z"/>
			</g>
		</g>
	</g>
	<g>
		<g>
			<g>
				<path fill="#FFFFFF" d="M103.556,34.054c-0.89-0.299-1.58-0.7-2.069-1.203l0.526-1.066c0.477,0.465,1.107,0.839,1.893,1.121
					c0.784,0.282,1.591,0.418,2.422,0.408c1.165-0.014,2.036-0.238,2.614-0.673c0.578-0.435,0.862-0.993,0.854-1.674
					c-0.006-0.521-0.168-0.934-0.488-1.24s-0.71-0.54-1.171-0.702s-1.102-0.337-1.922-0.525c-0.982-0.236-1.767-0.466-2.352-0.688
					c-0.585-0.222-1.087-0.566-1.509-1.032c-0.421-0.466-0.637-1.103-0.646-1.909c-0.008-0.657,0.158-1.257,0.499-1.8
					c0.341-0.543,0.868-0.98,1.584-1.311c0.715-0.331,1.605-0.502,2.672-0.515c0.744-0.009,1.473,0.085,2.188,0.281
					c0.715,0.196,1.335,0.471,1.86,0.824l-0.451,1.102c-0.551-0.353-1.137-0.615-1.758-0.788c-0.623-0.172-1.231-0.255-1.826-0.248
					c-1.141,0.013-1.996,0.244-2.567,0.69c-0.571,0.447-0.853,1.018-0.845,1.712c0.007,0.52,0.17,0.937,0.49,1.249
					c0.319,0.313,0.719,0.55,1.197,0.711c0.479,0.162,1.123,0.337,1.931,0.525c0.958,0.225,1.732,0.448,2.324,0.67
					c0.591,0.223,1.095,0.564,1.509,1.023c0.415,0.46,0.627,1.087,0.637,1.88c0.008,0.657-0.162,1.257-0.509,1.801
					c-0.347,0.544-0.884,0.978-1.612,1.303c-0.728,0.324-1.625,0.493-2.69,0.506C105.375,34.497,104.445,34.353,103.556,34.054z"/>
			</g>
		</g>
		<g>
			<g>
				<path fill="#FFFFFF" d="M127.18,30.649l-7.252,0.086l-1.521,3.496l-1.432,0.017l5.796-13.087l1.356-0.016l6.104,12.945
					l-1.45,0.017L127.18,30.649z M126.664,29.539l-3.207-6.955l-3.041,7.029L126.664,29.539z"/>
			</g>
		</g>
		<g>
			<g>
				<path fill="#FFFFFF" d="M150.625,20.83l0.155,13.016l-1.32,0.016l-0.124-10.413l-5.009,8.818l-0.651,0.008l-5.217-8.642
					l0.123,10.357l-1.319,0.016l-0.154-13.016l1.133-0.013l5.768,9.583l5.482-9.717L150.625,20.83z"/>
			</g>
		</g>
		<g>
			<g>
				<path fill="#FFFFFF" d="M168.527,21.807c0.951,0.783,1.436,1.868,1.451,3.256c0.017,1.389-0.441,2.482-1.374,3.28
					c-0.933,0.799-2.229,1.208-3.891,1.228l-3.496,0.042l0.049,4.109l-1.375,0.016l-0.154-13.016l4.871-0.058
					C166.27,20.644,167.575,21.025,168.527,21.807z M167.609,27.48c0.674-0.572,1.006-1.372,0.994-2.401
					c-0.013-1.054-0.364-1.858-1.053-2.414c-0.688-0.556-1.677-0.826-2.966-0.811l-3.459,0.041l0.077,6.508l3.459-0.041
					C165.951,28.347,166.934,28.053,167.609,27.48z"/>
			</g>
		</g>
		<g>
			<g>
				<path fill="#FFFFFF" d="M177.959,20.504l1.376-0.016l0.14,11.826l7.289-0.087l0.015,1.19l-8.665,0.103L177.959,20.504z"/>
			</g>
		</g>
		<g>
			<g>
				<path fill="#FFFFFF" d="M203.127,32.033l0.014,1.19l-9.204,0.11l-0.154-13.017l8.925-0.106l0.014,1.19l-7.549,0.09l0.055,4.63
					l6.731-0.08l0.014,1.171l-6.73,0.08l0.057,4.835L203.127,32.033z"/>
			</g>
		</g>
	</g>
	<g>
		<g>
			<g>
				<path fill="#FFFFFF" d="M49.09,66.667c-0.89-0.299-1.578-0.7-2.068-1.203l0.526-1.066c0.476,0.466,1.106,0.839,1.892,1.121
					c0.784,0.282,1.592,0.418,2.423,0.408c1.165-0.014,2.036-0.238,2.614-0.673c0.577-0.434,0.861-0.992,0.854-1.674
					c-0.006-0.521-0.169-0.934-0.488-1.24c-0.32-0.306-0.71-0.54-1.171-0.702c-0.461-0.162-1.102-0.337-1.922-0.525
					c-0.981-0.236-1.767-0.466-2.351-0.688c-0.586-0.222-1.089-0.566-1.511-1.033c-0.421-0.466-0.636-1.102-0.646-1.908
					c-0.008-0.657,0.159-1.257,0.5-1.801c0.34-0.543,0.868-0.98,1.583-1.311c0.715-0.331,1.606-0.502,2.672-0.516
					c0.743-0.008,1.474,0.085,2.189,0.281c0.714,0.196,1.335,0.471,1.859,0.824l-0.452,1.103c-0.549-0.353-1.135-0.615-1.756-0.788
					c-0.623-0.172-1.231-0.255-1.827-0.249c-1.141,0.014-1.995,0.245-2.567,0.691c-0.571,0.447-0.853,1.018-0.844,1.711
					c0.006,0.521,0.17,0.937,0.489,1.25c0.319,0.312,0.719,0.549,1.198,0.711s1.123,0.337,1.931,0.525
					c0.957,0.225,1.731,0.448,2.323,0.67c0.592,0.222,1.095,0.563,1.51,1.023c0.414,0.459,0.626,1.086,0.636,1.879
					c0.008,0.657-0.162,1.258-0.509,1.801s-0.884,0.978-1.611,1.302c-0.728,0.325-1.625,0.494-2.69,0.506
					C50.909,67.11,49.98,66.966,49.09,66.667z"/>
			</g>
		</g>
		<g>
			<g>
				<path fill="#FFFFFF" d="M75.316,53.691l0.154,13.016l-1.135,0.014l-8.492-10.462l0.125,10.561l-1.376,0.017L64.438,53.82
					l1.135-0.013l8.513,10.462l-0.126-10.562L75.316,53.691z"/>
			</g>
		</g>
		<g>
			<g>
				<path fill="#FFFFFF" d="M92.704,63.024l-7.253,0.086l-1.521,3.496L82.5,66.623l5.795-13.086l1.357-0.017l6.104,12.945
					l-1.45,0.018L92.704,63.024z M92.188,61.915l-3.206-6.955l-3.041,7.029L92.188,61.915z"/>
			</g>
		</g>
		<g>
			<g>
				<path fill="#FFFFFF" d="M105.173,54.526l-4.573,0.055l-0.015-1.19l10.524-0.125l0.014,1.19l-4.574,0.054l0.142,11.826
					l-1.377,0.017L105.173,54.526z"/>
			</g>
		</g>
		<g>
			<g>
				<path fill="#FFFFFF" d="M120.487,65.428c-1.041-0.558-1.863-1.338-2.464-2.342s-0.909-2.131-0.924-3.383
					s0.267-2.387,0.843-3.404c0.577-1.017,1.382-1.817,2.417-2.399c1.034-0.583,2.196-0.882,3.486-0.897
					c0.967-0.012,1.861,0.139,2.682,0.452c0.822,0.312,1.522,0.775,2.1,1.388l-0.863,0.884c-1.028-1.017-2.317-1.516-3.867-1.498
					c-1.029,0.012-1.961,0.259-2.8,0.74c-0.836,0.481-1.489,1.134-1.957,1.958c-0.467,0.824-0.694,1.744-0.683,2.76
					c0.012,1.017,0.261,1.931,0.749,2.744c0.486,0.812,1.154,1.449,2.003,1.91c0.849,0.461,1.787,0.686,2.816,0.673
					c1.562-0.019,2.838-0.555,3.83-1.607l0.884,0.863c-0.562,0.627-1.253,1.109-2.075,1.448c-0.819,0.338-1.713,0.513-2.681,0.524
					C122.694,66.257,121.529,65.986,120.487,65.428z"/>
			</g>
		</g>
		<g>
			<g>
				<path fill="#FFFFFF" d="M147.294,52.835l0.155,13.016l-1.357,0.016l-0.072-6.006l-8.145,0.097l0.072,6.006l-1.377,0.016
					l-0.154-13.016l1.376-0.017l0.068,5.802l8.146-0.097l-0.069-5.802L147.294,52.835z"/>
			</g>
		</g>
		<g>
			<g>
				<path fill="#FFFFFF" d="M165.75,64.443l0.014,1.19l-9.204,0.109l-0.155-13.016l8.926-0.106l0.014,1.19l-7.549,0.09l0.055,4.63
					l6.73-0.08l0.014,1.171l-6.73,0.08l0.059,4.835L165.75,64.443z"/>
			</g>
		</g>
		<g>
			<g>
				<path fill="#FFFFFF" d="M182.759,65.432l-3.025-4.149c-0.334,0.041-0.682,0.064-1.041,0.068l-3.495,0.042l0.049,4.128
					l-1.376,0.017l-0.154-13.016l4.871-0.058c1.661-0.02,2.968,0.362,3.919,1.144c0.951,0.783,1.436,1.868,1.452,3.256
					c0.012,1.017-0.234,1.878-0.74,2.584c-0.507,0.707-1.235,1.221-2.186,1.542l3.232,4.425L182.759,65.432z M181.589,59.29
					c0.674-0.578,1.006-1.382,0.993-2.411c-0.012-1.053-0.363-1.857-1.052-2.414c-0.688-0.556-1.677-0.826-2.967-0.811l-3.458,0.042
					l0.077,6.526l3.46-0.041C179.931,60.165,180.913,59.868,181.589,59.29z"/>
			</g>
		</g>
	</g>
	<g>
		<g>
			<path fill="#FFFFFF" d="M82.643,47.396l-0.441-37.069l144.604-1.719l0.44,37.069L82.643,47.396z M84.114,12.194l0.396,33.289
				l140.821-1.674l-0.396-33.289L84.114,12.194z"/>
		</g>
	</g>
	<g>
		<g>
			<g>
				<path fill="#FFFFFF" d="M25.057,80.43l-0.44-37.069l59.86-0.712l0.034,2.834l119.188-1.417l0.407,34.236L25.057,80.43z
					 M26.529,45.229l0.396,33.289l175.267-2.084l-0.362-30.455L82.643,47.396l-0.034-2.834L26.529,45.229z"/>
			</g>
		</g>
	</g>
	<g>
		<g>
			<g>
				<g>
					<g>
						<polygon fill="#FFFFFF" points="202.156,47.751 202.131,45.823 202.145,46.491 						"/>
					</g>
				</g>
				<g>
					<g>
						<rect x="207.45" y="48.312" fill="#FFFFFF" width="0.006" height="0.006"/>
					</g>
				</g>
			</g>
		</g>
		<g>
			<g>
				<g>
					<g>
						<path fill="#FFFFFF" d="M30.635,78.949v0.007l171.868-2.048L30.635,78.949z"/>
					</g>
				</g>
			</g>
		</g>
		<g>
			<g>
				<g>
					<g>
						<path fill="#FFFFFF" d="M226.523,12.261"/>
					</g>
				</g>
			</g>
		</g>
		<g>
			<g>
				<g>
					<g>
						<polygon fill="#FFFFFF" points="207.45,48.318 207.891,80.664 28.229,82.8 28.178,81.502 28.114,78.981 30.635,78.949 
							30.635,78.956 202.503,76.908 202.176,49.011 202.17,49.011 202.156,47.751 202.145,46.491 202.131,45.823 202.119,44.562 
							204.872,44.531 206.133,44.518 225.643,44.285 225.245,11.007 230.583,10.975 231.03,48.034 207.456,48.312 207.45,48.312 
													"/>
					</g>
				</g>
			</g>
		</g>
		<g>
			<g>
				<g>
					<g>
						<polygon fill="#FFFFFF" points="202.503,76.908 202.17,49.011 202.176,49.011 						"/>
					</g>
				</g>
			</g>
		</g>
	</g>
</g>
</svg>
