<?xml version="1.0" encoding="utf-8"?>
<!-- Generator: Adobe Illustrator 16.0.4, SVG Export Plug-In . SVG Version: 6.00 Build 0)  -->
<!DOCTYPE svg PUBLIC "-//W3C//DTD SVG 1.1//EN" "http://www.w3.org/Graphics/SVG/1.1/DTD/svg11.dtd">
<svg version="1.1" id="Layer_1" xmlns="http://www.w3.org/2000/svg" xmlns:xlink="http://www.w3.org/1999/xlink" x="0px" y="0px"
	 width="100px" height="35.75px" viewBox="0 0 100 35.75" enable-background="new 0 0 100 35.75" xml:space="preserve">
<g>
	<g>
		<g>
			<path fill="#FFFFFF" d="M6.091,13.686c0.021,0.348,0.041,0.68,0.06,0.994c0.02,0.314,0.044,0.565,0.075,0.751
				c0.049,0.274,0.142,0.458,0.277,0.553s0.268,0.127,0.398,0.098c0.151-0.034,0.322-0.151,0.51-0.353
				c0.188-0.201,0.381-0.443,0.58-0.728c0.199-0.283,0.392-0.588,0.581-0.915s0.362-0.636,0.518-0.927
				c0.157-0.291,0.288-0.545,0.393-0.762c0.105-0.217,0.178-0.359,0.221-0.425c0.051-0.079,0.11-0.132,0.178-0.159
				c0.068-0.027,0.127-0.029,0.178-0.006c0.051,0.022,0.086,0.078,0.105,0.164c0.019,0.087,0,0.205-0.058,0.354
				c-0.084,0.235-0.198,0.514-0.342,0.836c-0.145,0.322-0.309,0.658-0.492,1.006c-0.185,0.349-0.383,0.695-0.597,1.038
				c-0.213,0.344-0.434,0.655-0.662,0.934s-0.455,0.514-0.679,0.707s-0.44,0.312-0.646,0.358c-0.152,0.034-0.305,0.023-0.46-0.034
				c-0.155-0.056-0.303-0.143-0.442-0.259c-0.14-0.117-0.259-0.255-0.357-0.416c-0.098-0.16-0.162-0.328-0.189-0.504
				c-0.007-0.078-0.02-0.212-0.039-0.401C4.861,16.204,4.494,16.71,4.1,17.111c-0.394,0.401-0.802,0.649-1.225,0.744
				c-0.152,0.034-0.323,0.032-0.514-0.005c-0.19-0.037-0.373-0.127-0.547-0.27c-0.174-0.144-0.336-0.346-0.486-0.609
				c-0.15-0.262-0.259-0.596-0.327-1.002c-0.109-0.636-0.117-1.26-0.026-1.873c0.091-0.612,0.254-1.164,0.492-1.655
				c0.238-0.491,0.538-0.906,0.9-1.243c0.363-0.337,0.755-0.554,1.179-0.648c0.184-0.042,0.362-0.033,0.535,0.025
				c0.173,0.059,0.329,0.148,0.47,0.271s0.267,0.262,0.376,0.42c0.109,0.158,0.197,0.309,0.263,0.453
				c0.005-0.331,0.007-0.656,0.004-0.974c-0.003-0.318-0.002-0.62,0.002-0.906c0.018-0.425,0.035-0.884,0.05-1.377
				c0.019-0.425,0.04-0.914,0.065-1.466c0.024-0.552,0.059-1.134,0.104-1.748c0.089-0.111,0.178-0.199,0.265-0.264
				C5.77,4.919,5.854,4.866,5.936,4.825c0.09-0.055,0.179-0.092,0.265-0.111C6.31,4.689,6.41,4.681,6.503,4.689
				C6.596,4.697,6.686,4.75,6.771,4.851s0.164,0.262,0.236,0.485c0.072,0.223,0.142,0.532,0.207,0.927
				C7.299,6.745,7.332,7.284,7.311,7.88c-0.02,0.597-0.082,1.223-0.186,1.877c-0.104,0.655-0.244,1.318-0.418,1.989
				C6.533,12.417,6.328,13.064,6.091,13.686z M5.179,14.112c-0.003-0.216-0.008-0.431-0.017-0.646
				c-0.008-0.214-0.009-0.436-0.003-0.665c-0.02,0.016-0.037,0.031-0.05,0.045c-0.014,0.015-0.03,0.03-0.049,0.046
				c-0.107,0.081-0.189,0.097-0.246,0.046c-0.057-0.05-0.1-0.14-0.129-0.27c-0.015-0.065-0.046-0.18-0.094-0.346
				c-0.049-0.166-0.117-0.333-0.206-0.5S4.188,11.514,4.061,11.4c-0.128-0.114-0.279-0.151-0.453-0.112
				c-0.25,0.056-0.475,0.24-0.678,0.553c-0.204,0.313-0.378,0.676-0.524,1.09c-0.147,0.415-0.25,0.844-0.309,1.291
				c-0.06,0.446-0.064,0.833-0.013,1.164c0.095,0.525,0.243,0.885,0.446,1.079c0.203,0.193,0.434,0.261,0.694,0.203
				c0.195-0.043,0.392-0.167,0.591-0.371c0.199-0.204,0.386-0.439,0.559-0.706c0.174-0.266,0.33-0.535,0.469-0.805
				C4.982,14.515,5.093,14.291,5.179,14.112z"/>
		</g>
	</g>
	<g>
		<g>
			<path fill="#FFFFFF" d="M9.63,9.735c0.04-0.077,0.13-0.154,0.272-0.232c0.142-0.077,0.291-0.147,0.448-0.211
				s0.302-0.113,0.437-0.149C10.921,9.108,11,9.093,11.025,9.099c0.013,0.008,0.011,0.128-0.005,0.36s-0.041,0.504-0.073,0.819
				c-0.032,0.314-0.068,0.638-0.107,0.972c-0.039,0.333-0.064,0.604-0.074,0.811c-0.011,0.207-0.027,0.441-0.048,0.702
				c-0.021,0.261-0.036,0.515-0.043,0.761c-0.008,0.247,0.001,0.475,0.025,0.686c0.024,0.211,0.076,0.365,0.154,0.461
				c0.083,0.118,0.163,0.194,0.239,0.228c0.076,0.035,0.152,0.043,0.227,0.026c0.217-0.048,0.464-0.229,0.742-0.541
				c0.277-0.312,0.55-0.672,0.817-1.08s0.509-0.814,0.726-1.221c0.216-0.407,0.372-0.729,0.467-0.966
				c0.062-0.128,0.136-0.218,0.221-0.272c0.084-0.053,0.162-0.064,0.231-0.034s0.118,0.093,0.145,0.189
				c0.027,0.096,0.018,0.218-0.029,0.365c-0.105,0.342-0.279,0.76-0.522,1.253s-0.511,0.974-0.804,1.443
				c-0.293,0.47-0.591,0.881-0.894,1.233s-0.567,0.559-0.792,0.621c-0.182,0.052-0.37,0.062-0.565,0.032s-0.379-0.091-0.554-0.183
				c-0.174-0.092-0.329-0.211-0.464-0.357c-0.135-0.146-0.229-0.31-0.28-0.492c-0.093-0.264-0.176-0.635-0.25-1.114
				s-0.122-0.974-0.145-1.487c-0.024-0.513-0.018-1.006,0.019-1.481C9.425,10.356,9.506,9.991,9.63,9.735z M11.1,5.77
				c-0.006,0.126-0.043,0.257-0.109,0.392s-0.148,0.25-0.247,0.346c-0.098,0.096-0.204,0.168-0.318,0.216
				c-0.115,0.048-0.217,0.048-0.307,0C9.851,6.601,9.69,6.44,9.634,6.243c-0.055-0.198-0.049-0.399,0.02-0.602
				s0.17-0.385,0.305-0.546c0.135-0.161,0.259-0.266,0.374-0.314c0.115-0.048,0.22-0.046,0.317,0.005
				c0.097,0.053,0.18,0.131,0.249,0.235c0.068,0.104,0.121,0.227,0.158,0.366C11.094,5.526,11.108,5.654,11.1,5.77z"/>
		</g>
	</g>
	<g>
		<g>
			<path fill="#FFFFFF" d="M13.598,15.183c-0.049,0.136-0.116,0.234-0.2,0.292c-0.083,0.059-0.163,0.082-0.24,0.071
				c-0.077-0.012-0.135-0.058-0.176-0.14c-0.042-0.082-0.044-0.195-0.008-0.34c0.018-0.073,0.059-0.235,0.121-0.488
				c0.064-0.253,0.138-0.557,0.223-0.912c0.086-0.355,0.179-0.74,0.28-1.155c0.1-0.416,0.197-0.81,0.29-1.184
				c0.093-0.374,0.181-0.709,0.262-1.006c0.082-0.297,0.142-0.513,0.18-0.646c-0.144-0.082-0.243-0.143-0.296-0.182
				c-0.055-0.039-0.111-0.138-0.169-0.295c-0.054-0.136-0.062-0.328-0.026-0.575c0.036-0.247,0.101-0.492,0.194-0.735
				c0.093-0.244,0.21-0.46,0.35-0.651c0.139-0.19,0.291-0.304,0.454-0.34c0.303-0.068,0.54-0.018,0.708,0.149
				c0.168,0.167,0.286,0.351,0.354,0.552c0.053,0.136,0.082,0.317,0.088,0.544c0.005,0.227-0.033,0.44-0.113,0.64
				c0.038,0.014,0.086,0.029,0.147,0.044c0.06,0.015,0.15,0.009,0.269-0.018c0.173-0.039,0.292-0.077,0.358-0.114
				s0.174-0.073,0.326-0.107c0.184-0.041,0.346-0.028,0.486,0.037c0.14,0.065,0.263,0.158,0.369,0.276
				c0.106,0.119,0.196,0.252,0.27,0.4c0.073,0.149,0.129,0.287,0.169,0.415c0.093,0.264,0.085,0.561-0.022,0.893
				c-0.108,0.331-0.248,0.699-0.42,1.101c-0.104,0.251-0.2,0.529-0.292,0.834s-0.102,0.563-0.032,0.775
				c0.053,0.137,0.117,0.242,0.19,0.316c0.074,0.075,0.235,0.084,0.484,0.028c0.184-0.042,0.373-0.154,0.564-0.34
				c0.192-0.185,0.381-0.409,0.566-0.673c0.186-0.263,0.364-0.548,0.535-0.854s0.327-0.602,0.467-0.89s0.256-0.544,0.348-0.77
				c0.092-0.225,0.161-0.388,0.207-0.49c0.035-0.099,0.092-0.174,0.171-0.227c0.08-0.052,0.155-0.068,0.228-0.051
				c0.073,0.018,0.128,0.074,0.166,0.168c0.038,0.094,0.026,0.233-0.035,0.417c-0.041,0.123-0.114,0.321-0.217,0.595
				c-0.104,0.274-0.234,0.582-0.391,0.924c-0.157,0.342-0.336,0.699-0.538,1.068c-0.202,0.37-0.423,0.716-0.665,1.037
				c-0.241,0.322-0.492,0.597-0.754,0.827c-0.262,0.229-0.528,0.375-0.799,0.435c-0.282,0.063-0.527,0.061-0.736-0.006
				c-0.208-0.067-0.387-0.167-0.536-0.298c-0.149-0.132-0.269-0.287-0.36-0.466c-0.091-0.179-0.149-0.351-0.175-0.516
				c-0.019-0.132-0.014-0.278,0.013-0.438c0.027-0.16,0.063-0.327,0.11-0.502c0.046-0.175,0.098-0.352,0.154-0.53
				c0.057-0.177,0.106-0.351,0.148-0.52c0.114-0.355,0.203-0.657,0.267-0.905c0.064-0.248,0.079-0.447,0.045-0.599
				c-0.022-0.098-0.063-0.179-0.123-0.246c-0.061-0.066-0.14-0.088-0.237-0.066c-0.065,0.015-0.111,0.028-0.136,0.039
				c-0.026,0.011-0.053,0.02-0.08,0.026c-0.027,0.005-0.064,0.017-0.112,0.033c-0.047,0.017-0.12,0.036-0.217,0.057
				c-0.141,0.032-0.266,0.037-0.373,0.015c-0.107-0.021-0.207-0.033-0.298-0.036c-0.026,0.085-0.087,0.27-0.184,0.553
				c-0.096,0.284-0.207,0.616-0.332,0.996c-0.126,0.382-0.259,0.781-0.398,1.199c-0.14,0.418-0.272,0.81-0.396,1.172
				c-0.124,0.364-0.228,0.672-0.314,0.924C13.675,14.981,13.621,15.132,13.598,15.183z"/>
		</g>
	</g>
	<g>
		<g>
			<path fill="#FFFFFF" d="M26.079,8.156c0.029-0.075,0.077-0.128,0.144-0.16c0.067-0.032,0.125-0.037,0.177-0.014
				c0.05,0.023,0.086,0.072,0.109,0.146c0.022,0.075,0.015,0.185-0.021,0.329c-0.125,0.461-0.31,0.969-0.555,1.524
				c-0.246,0.556-0.518,1.086-0.814,1.591c-0.296,0.505-0.599,0.934-0.907,1.288c-0.308,0.353-0.586,0.558-0.835,0.614
				c-0.358,0.08-0.672,0.076-0.942-0.011c-0.27-0.088-0.495-0.219-0.677-0.395c-0.182-0.175-0.327-0.379-0.436-0.611
				c-0.109-0.232-0.175-0.453-0.2-0.665c-0.028-0.175-0.06-0.496-0.096-0.96c-0.035-0.464-0.065-1.004-0.089-1.619
				c-0.023-0.615-0.044-1.276-0.06-1.984c-0.016-0.708-0.018-1.393-0.007-2.056c-0.18,0.063-0.359,0.126-0.539,0.188
				c-0.18,0.063-0.345,0.111-0.497,0.146c-0.347,0.077-0.684,0.11-1.012,0.098c-0.327-0.013-0.574-0.04-0.743-0.081
				c-0.096-0.024-0.148-0.079-0.156-0.162c-0.007-0.084,0.007-0.172,0.043-0.266c0.036-0.093,0.088-0.179,0.156-0.257
				s0.134-0.124,0.199-0.138c0.211-0.025,0.438-0.055,0.679-0.093c0.243-0.037,0.503-0.092,0.783-0.166
				c0.203-0.057,0.398-0.118,0.583-0.182c0.184-0.063,0.365-0.132,0.542-0.207c0.024-0.552,0.061-1.035,0.111-1.451
				c0.049-0.416,0.111-0.71,0.185-0.887c0.021-0.062,0.083-0.124,0.189-0.187c0.105-0.064,0.221-0.119,0.348-0.164
				c0.126-0.045,0.251-0.073,0.374-0.083c0.123-0.011,0.219,0.011,0.288,0.063c0.073,0.075,0.145,0.292,0.214,0.652
				c0.069,0.36,0.111,0.829,0.127,1.406c0.455-0.102,0.864-0.167,1.228-0.198c0.362-0.03,0.676-0.043,0.939-0.039
				c0.263,0.004,0.476,0.019,0.642,0.044c0.165,0.025,0.288,0.041,0.369,0.045c0.081,0.005,0.133,0.051,0.159,0.136
				c0.024,0.085,0.028,0.179,0.011,0.279c-0.018,0.101-0.062,0.193-0.134,0.278c-0.073,0.084-0.166,0.128-0.278,0.13
				c-0.111,0.013-0.238,0.019-0.38,0.017c-0.144-0.002-0.312,0.007-0.506,0.028c-0.194,0.021-0.424,0.049-0.689,0.086
				c-0.265,0.037-0.571,0.094-0.918,0.171c-0.065,0.015-0.137,0.034-0.218,0.057c-0.08,0.023-0.164,0.045-0.25,0.064
				c-0.005,0.184-0.007,0.363-0.008,0.54c0,0.177-0.012,0.364-0.036,0.563c-0.044,0.465-0.101,0.973-0.172,1.523
				c-0.063,0.481-0.144,1.034-0.243,1.66s-0.217,1.295-0.354,2.009c0.04,0.481,0.127,0.834,0.263,1.059
				c0.136,0.226,0.276,0.38,0.419,0.462c0.167,0.087,0.355,0.114,0.564,0.079c0.168-0.015,0.352-0.116,0.555-0.304
				s0.403-0.423,0.602-0.707c0.199-0.283,0.395-0.589,0.589-0.917c0.194-0.328,0.371-0.646,0.53-0.955
				c0.158-0.309,0.295-0.587,0.411-0.835S26.034,8.258,26.079,8.156z"/>
		</g>
	</g>
	<g>
		<g>
			<path fill="#FFFFFF" d="M28.962,5.547c0.117-0.14,0.236-0.255,0.358-0.345s0.235-0.158,0.339-0.204
				c0.112-0.06,0.229-0.097,0.351-0.113c0.297-0.044,0.499,0.008,0.606,0.155c0.106,0.146,0.173,0.405,0.199,0.775
				c0.008,0.192-0.004,0.439-0.039,0.743c-0.034,0.304-0.071,0.673-0.11,1.109c-0.04,0.436-0.074,0.93-0.104,1.483
				c-0.03,0.553-0.037,1.17-0.021,1.849c-0.011,0.56-0.015,1.205-0.012,1.932c0.006,0.636,0.015,1.402,0.028,2.299
				c0.012,0.896,0.04,1.92,0.081,3.072c0.006,0.283-0.075,0.467-0.245,0.55c-0.169,0.083-0.361,0.104-0.575,0.061
				c-0.086-0.026-0.167-0.06-0.245-0.1c-0.066-0.041-0.139-0.091-0.22-0.146c-0.082-0.056-0.157-0.139-0.227-0.248
				c0.046-0.967,0.08-1.845,0.102-2.636c0.022-0.79,0.047-1.479,0.076-2.066c0.02-0.676,0.042-1.285,0.069-1.826
				c0.003-0.24,0.005-0.476,0.003-0.709c0-0.233,0.001-0.464,0.007-0.693c-0.09,0.259-0.193,0.51-0.31,0.752
				c-0.117,0.243-0.255,0.462-0.417,0.657c-0.161,0.195-0.344,0.359-0.548,0.49c-0.204,0.131-0.429,0.207-0.674,0.228
				c-0.603,0.055-1.065-0.069-1.39-0.372c-0.324-0.303-0.534-0.746-0.63-1.328c-0.04-0.23-0.063-0.486-0.07-0.77
				c-0.006-0.283-0.004-0.557,0.004-0.821c0.009-0.263,0.021-0.502,0.036-0.716c0.014-0.214,0.028-0.368,0.042-0.462
				c0.038-0.441,0.054-0.815,0.048-1.121c-0.006-0.306-0.107-0.54-0.302-0.701c0.13-0.132,0.258-0.231,0.386-0.3
				c0.127-0.068,0.242-0.125,0.346-0.172c0.117-0.037,0.235-0.063,0.357-0.08c0.302-0.022,0.498,0.048,0.585,0.211
				c0.087,0.163,0.126,0.427,0.117,0.793c-0.002,0.193-0.02,0.445-0.053,0.754c-0.034,0.31-0.071,0.628-0.111,0.956
				c-0.041,0.328-0.075,0.628-0.105,0.903c-0.03,0.274-0.039,0.466-0.025,0.577c0.012,0.51,0.09,0.888,0.236,1.134
				c0.146,0.247,0.366,0.337,0.659,0.271c0.141-0.032,0.284-0.129,0.43-0.293c0.145-0.163,0.285-0.368,0.417-0.614
				s0.256-0.521,0.37-0.826c0.114-0.304,0.214-0.608,0.3-0.912c0.086-0.304,0.157-0.598,0.212-0.884
				c0.056-0.286,0.087-0.538,0.096-0.756c-0.014-0.418-0.036-0.744-0.065-0.976C29.299,5.882,29.176,5.693,28.962,5.547z"/>
		</g>
	</g>
</g>
<g>
	<g>
		<g>
			<path fill="#FFFFFF" d="M42.958,13.208c-0.391-0.132-0.693-0.308-0.909-0.529l0.231-0.468c0.209,0.204,0.487,0.369,0.832,0.492
				c0.344,0.124,0.699,0.184,1.064,0.179c0.511-0.006,0.894-0.104,1.148-0.295c0.253-0.191,0.378-0.436,0.375-0.735
				c-0.002-0.229-0.074-0.41-0.214-0.544c-0.141-0.135-0.312-0.238-0.514-0.309c-0.203-0.071-0.484-0.148-0.845-0.23
				c-0.431-0.104-0.775-0.205-1.033-0.302c-0.257-0.098-0.478-0.249-0.663-0.454c-0.185-0.205-0.28-0.483-0.284-0.837
				c-0.003-0.289,0.07-0.552,0.219-0.792c0.149-0.238,0.381-0.43,0.695-0.575c0.314-0.146,0.706-0.221,1.174-0.227
				c0.327-0.004,0.647,0.037,0.961,0.124c0.314,0.086,0.586,0.207,0.817,0.362L45.814,8.55c-0.241-0.155-0.499-0.27-0.772-0.346
				c-0.273-0.075-0.541-0.111-0.802-0.109c-0.501,0.006-0.876,0.108-1.128,0.304c-0.251,0.196-0.375,0.447-0.371,0.751
				c0.002,0.229,0.074,0.412,0.215,0.549s0.316,0.242,0.526,0.312c0.211,0.071,0.493,0.148,0.848,0.231
				c0.421,0.099,0.761,0.196,1.021,0.294c0.26,0.098,0.481,0.248,0.663,0.45c0.183,0.202,0.275,0.477,0.28,0.826
				c0.003,0.289-0.071,0.552-0.224,0.791s-0.388,0.429-0.708,0.572c-0.32,0.143-0.714,0.217-1.182,0.223
				C43.756,13.402,43.348,13.339,42.958,13.208z"/>
		</g>
	</g>
	<g>
		<g>
			<path fill="#FFFFFF" d="M53.334,11.712l-3.186,0.038l-0.667,1.535l-0.629,0.007l2.545-5.748l0.597-0.007l2.682,5.686
				l-0.638,0.007L53.334,11.712z M53.107,11.225L51.698,8.17l-1.335,3.087L53.107,11.225z"/>
		</g>
	</g>
	<g>
		<g>
			<path fill="#FFFFFF" d="M63.632,7.399l0.068,5.717l-0.58,0.007l-0.055-4.574l-2.2,3.873l-0.285,0.004L58.287,8.63l0.055,4.549
				l-0.579,0.007l-0.068-5.717l0.498-0.005l2.533,4.209l2.408-4.268L63.632,7.399z"/>
		</g>
	</g>
	<g>
		<g>
			<path fill="#FFFFFF" d="M71.495,7.828c0.417,0.344,0.631,0.82,0.637,1.43c0.008,0.61-0.194,1.091-0.604,1.441
				c-0.409,0.351-0.979,0.531-1.708,0.54l-1.536,0.018l0.021,1.805l-0.604,0.007l-0.067-5.717l2.14-0.025
				C70.503,7.317,71.077,7.485,71.495,7.828z M71.091,10.32c0.297-0.251,0.442-0.603,0.437-1.055
				c-0.005-0.463-0.159-0.816-0.462-1.061c-0.302-0.244-0.736-0.362-1.303-0.356l-1.52,0.018l0.034,2.858l1.521-0.018
				C70.363,10.701,70.795,10.571,71.091,10.32z"/>
		</g>
	</g>
	<g>
		<g>
			<path fill="#FFFFFF" d="M75.637,7.256l0.604-0.007l0.062,5.194l3.202-0.039l0.006,0.523l-3.806,0.045L75.637,7.256z"/>
		</g>
	</g>
	<g>
		<g>
			<path fill="#FFFFFF" d="M86.691,12.32l0.007,0.522l-4.043,0.048l-0.068-5.717l3.921-0.047l0.006,0.523l-3.316,0.039l0.024,2.034
				l2.957-0.035l0.006,0.514l-2.956,0.036l0.024,2.124L86.691,12.32z"/>
		</g>
	</g>
</g>
<g>
	<g>
		<g>
			<path fill="#FFFFFF" d="M19.036,27.532c-0.391-0.133-0.694-0.308-0.909-0.529l0.231-0.468c0.209,0.205,0.487,0.369,0.832,0.492
				c0.345,0.124,0.699,0.184,1.064,0.18c0.512-0.006,0.895-0.105,1.148-0.296c0.254-0.191,0.378-0.437,0.375-0.735
				c-0.003-0.229-0.075-0.41-0.215-0.545c-0.141-0.134-0.312-0.236-0.514-0.309c-0.203-0.07-0.484-0.147-0.844-0.23
				c-0.431-0.104-0.776-0.205-1.033-0.302c-0.257-0.099-0.478-0.249-0.663-0.454s-0.279-0.484-0.284-0.838
				c-0.003-0.288,0.07-0.553,0.22-0.791c0.149-0.238,0.381-0.43,0.695-0.576c0.314-0.146,0.706-0.221,1.174-0.227
				c0.326-0.003,0.646,0.038,0.961,0.124c0.314,0.087,0.586,0.206,0.817,0.362l-0.199,0.483c-0.241-0.154-0.499-0.27-0.772-0.346
				s-0.541-0.111-0.802-0.108c-0.5,0.005-0.876,0.107-1.127,0.303c-0.251,0.196-0.375,0.447-0.371,0.752
				c0.002,0.229,0.074,0.412,0.215,0.549c0.141,0.138,0.316,0.241,0.526,0.312s0.493,0.147,0.848,0.23
				c0.42,0.099,0.76,0.197,1.021,0.294c0.26,0.099,0.481,0.248,0.663,0.45c0.182,0.201,0.275,0.477,0.28,0.826
				c0.003,0.288-0.071,0.552-0.224,0.791c-0.152,0.238-0.388,0.429-0.708,0.571s-0.714,0.217-1.182,0.223
				C19.834,27.727,19.426,27.663,19.036,27.532z"/>
		</g>
	</g>
	<g>
		<g>
			<path fill="#FFFFFF" d="M30.555,21.832l0.067,5.717l-0.498,0.007l-3.73-4.596l0.055,4.639l-0.604,0.008l-0.068-5.718l0.499-0.006
				l3.738,4.596l-0.055-4.64L30.555,21.832z"/>
		</g>
	</g>
	<g>
		<g>
			<path fill="#FFFFFF" d="M38.191,25.932l-3.186,0.038l-0.668,1.535l-0.628,0.007l2.545-5.748l0.596-0.006l2.682,5.686
				l-0.637,0.008L38.191,25.932z M37.965,25.444l-1.408-3.054l-1.336,3.087L37.965,25.444z"/>
		</g>
	</g>
	<g>
		<g>
			<path fill="#FFFFFF" d="M43.668,22.199l-2.009,0.024L41.653,21.7l4.623-0.055l0.006,0.522l-2.009,0.024l0.062,5.193l-0.605,0.008
				L43.668,22.199z"/>
		</g>
	</g>
	<g>
		<g>
			<path fill="#FFFFFF" d="M50.395,26.988c-0.458-0.246-0.818-0.589-1.083-1.029c-0.264-0.441-0.399-0.937-0.405-1.486
				c-0.007-0.549,0.117-1.048,0.37-1.495c0.253-0.447,0.607-0.798,1.061-1.054c0.455-0.256,0.966-0.388,1.531-0.394
				c0.425-0.006,0.817,0.061,1.179,0.198s0.669,0.34,0.922,0.61l-0.379,0.387c-0.451-0.445-1.019-0.664-1.699-0.657
				c-0.451,0.006-0.861,0.114-1.229,0.325c-0.367,0.212-0.654,0.498-0.859,0.859c-0.206,0.362-0.305,0.767-0.3,1.213
				c0.005,0.446,0.115,0.849,0.329,1.205c0.214,0.357,0.507,0.636,0.88,0.839s0.786,0.301,1.237,0.296
				c0.686-0.009,1.247-0.243,1.683-0.706l0.389,0.379c-0.247,0.275-0.551,0.487-0.912,0.636c-0.36,0.148-0.753,0.226-1.177,0.23
				C51.364,27.352,50.853,27.232,50.395,26.988z"/>
		</g>
	</g>
	<g>
		<g>
			<path fill="#FFFFFF" d="M62.169,21.457l0.067,5.717l-0.596,0.006l-0.032-2.637l-3.576,0.042l0.031,2.638l-0.604,0.008
				l-0.068-5.717l0.604-0.008l0.03,2.549l3.577-0.043l-0.03-2.549L62.169,21.457z"/>
		</g>
	</g>
	<g>
		<g>
			<path fill="#FFFFFF" d="M70.274,26.555l0.006,0.522l-4.042,0.048l-0.068-5.717l3.921-0.046l0.006,0.522l-3.316,0.04l0.024,2.033
				l2.956-0.035l0.007,0.515l-2.957,0.035l0.025,2.123L70.274,26.555z"/>
		</g>
	</g>
	<g>
		<g>
			<path fill="#FFFFFF" d="M77.745,26.988l-1.328-1.821c-0.147,0.018-0.3,0.028-0.458,0.03l-1.534,0.018l0.021,1.813l-0.604,0.007
				l-0.068-5.717l2.14-0.025c0.729-0.009,1.303,0.159,1.721,0.502c0.419,0.345,0.631,0.82,0.639,1.43
				c0.005,0.447-0.103,0.826-0.325,1.136s-0.542,0.536-0.96,0.678l1.419,1.943L77.745,26.988z M77.231,24.291
				c0.296-0.254,0.442-0.607,0.437-1.059c-0.006-0.463-0.159-0.815-0.462-1.06c-0.302-0.245-0.736-0.363-1.304-0.356l-1.519,0.018
				l0.034,2.866l1.52-0.018C76.504,24.676,76.936,24.546,77.231,24.291z"/>
		</g>
	</g>
</g>
<g>
	<g>
		<path fill="#FFFFFF" d="M33.772,19.067L33.579,2.786l63.513-0.755l0.193,16.281L33.772,19.067z M34.418,3.606l0.174,14.622
			l61.852-0.736L96.271,2.87L34.418,3.606z"/>
	</g>
</g>
<g>
	<g>
		<g>
			<path fill="#FFFFFF" d="M8.479,33.577L8.286,17.295l26.292-0.312l0.014,1.245l52.35-0.623l0.179,15.038L8.479,33.577z
				 M9.126,18.116L9.3,32.736l76.981-0.915l-0.159-13.376l-52.35,0.622l-0.015-1.245L9.126,18.116z"/>
		</g>
	</g>
</g>
<g>
	<g>
		<g>
			<g>
				<g>
					<polygon fill="#FFFFFF" points="86.266,19.223 86.254,18.376 86.26,18.67 					"/>
				</g>
			</g>
			<g>
				<g>
					<rect x="88.591" y="19.469" fill="#FFFFFF" width="0.002" height="0.003"/>
				</g>
			</g>
		</g>
	</g>
	<g>
		<g>
			<g>
				<g>
					<path fill="#FFFFFF" d="M10.93,32.926v0.003l75.487-0.899L10.93,32.926z"/>
				</g>
			</g>
		</g>
	</g>
	<g>
		<g>
			<g>
				<g>
					<path fill="#FFFFFF" d="M96.968,3.635"/>
				</g>
			</g>
		</g>
	</g>
	<g>
		<g>
			<g>
				<g>
					<polygon fill="#FFFFFF" points="88.591,19.472 88.784,33.68 9.873,34.618 9.851,34.047 9.823,32.94 10.93,32.926 10.93,32.929 
						86.417,32.029 86.273,19.776 86.271,19.776 86.266,19.223 86.26,18.67 86.254,18.376 86.249,17.823 87.458,17.809 
						88.012,17.804 96.581,17.701 96.406,3.084 98.751,3.071 98.947,19.348 88.594,19.47 88.591,19.47 					"/>
				</g>
			</g>
		</g>
	</g>
	<g>
		<g>
			<g>
				<g>
					<polygon fill="#FFFFFF" points="86.417,32.029 86.271,19.776 86.273,19.776 					"/>
				</g>
			</g>
		</g>
	</g>
</g>
</svg>
