<?xml version="1.0" encoding="utf-8"?>
<!-- Generator: Adobe Illustrator 16.0.4, SVG Export Plug-In . SVG Version: 6.00 Build 0)  -->
<!DOCTYPE svg PUBLIC "-//W3C//DTD SVG 1.1//EN" "http://www.w3.org/Graphics/SVG/1.1/DTD/svg11.dtd">
<svg version="1.1" id="Layer_1" xmlns="http://www.w3.org/2000/svg" xmlns:xlink="http://www.w3.org/1999/xlink" x="0px" y="0px"
	 width="1000px" height="1000px" viewBox="0 0 1000 1000" enable-background="new 0 0 1000 1000" xml:space="preserve">
<path d="M-1170.001,253.333c0,10.585-7.403,19.169-16.536,19.169l0,0c-9.132,0-16.536-8.584-16.536-19.169v-63.662
	c0-10.587,7.403-19.168,16.536-19.168l0,0c9.133,0,16.536,8.582,16.536,19.168V253.333z"/>
<path d="M-1116.004,288.426c0,10.585-7.403,19.169-16.536,19.169l0,0c-9.132,0-16.536-8.584-16.536-19.169V159.671
	c0-10.587,7.403-19.168,16.536-19.168l0,0c9.133,0,16.536,8.582,16.536,19.168V288.426z"/>
<path d="M-1062.006,322.924c0,10.585-7.403,19.169-16.536,19.169l0,0c-9.132,0-16.536-8.584-16.536-19.169V107.775
	c0-10.587,7.403-19.168,16.536-19.168l0,0c9.133,0,16.536,8.582,16.536,19.168V322.924z"/>
<path d="M-1008.009,288.426c0,10.585-7.403,19.169-16.536,19.169l0,0c-9.132,0-16.536-8.584-16.536-19.169V146.773
	c0-10.587,7.403-19.168,16.536-19.168l0,0c9.133,0,16.536,8.582,16.536,19.168V288.426L-1008.009,288.426z"/>
<path d="M-952.512,322.924c0,10.585-7.403,19.169-16.536,19.169l0,0c-9.132,0-16.536-8.584-16.536-19.169V107.775
	c0-10.587,7.403-19.168,16.536-19.168l0,0c9.133,0,16.536,8.582,16.536,19.168V322.924z"/>
<path d="M-898.515,288.426c0,10.585-7.403,19.169-16.536,19.169l0,0c-9.132,0-16.536-8.584-16.536-19.169V146.773
	c0-10.587,7.403-19.168,16.536-19.168l0,0c9.133,0,16.536,8.582,16.536,19.168V288.426z"/>
<path d="M-844.518,288.426c0,10.585-7.403,19.169-16.536,19.169l0,0c-9.132,0-16.535-8.584-16.535-19.169V146.773
	c0-10.587,7.403-19.168,16.535-19.168l0,0c9.133,0,16.536,8.582,16.536,19.168V288.426z"/>
<path d="M-790.521,322.924c0,10.585-7.402,19.169-16.535,19.169l0,0c-9.133,0-16.535-8.584-16.535-19.169V107.775
	c0-10.587,7.402-19.168,16.535-19.168l0,0c9.133,0,16.535,8.582,16.535,19.168V322.924z"/>
<path d="M-736.522,288.426c0,10.585-7.402,19.169-16.535,19.169l0,0c-9.133,0-16.536-8.584-16.536-19.169V146.773
	c0-10.587,7.403-19.168,16.536-19.168l0,0c9.133,0,16.535,8.582,16.535,19.168V288.426z"/>
<path d="M-681.025,288.426c0,10.585-7.403,19.169-16.536,19.169l0,0c-9.132,0-16.535-8.584-16.535-19.169V171.671
	c0-10.587,7.403-19.168,16.535-19.168l0,0c9.133,0,16.536,8.582,16.536,19.168V288.426z"/>
<path d="M-627.028,249.333c0,10.585-7.402,19.169-16.535,19.169l0,0c-9.133,0-16.536-8.584-16.536-19.169v-47.662
	c0-10.587,7.403-19.168,16.536-19.168l0,0c9.133,0,16.535,8.582,16.535,19.168V249.333z"/>
<g opacity="0.2">
	<path d="M-1145.742,771.333c0,10.586-6.118,19.17-13.665,19.17l0,0c-7.547,0-13.665-8.584-13.665-19.17v-63.662
		c0-10.586,6.118-19.168,13.665-19.168l0,0c7.547,0,13.665,8.582,13.665,19.168V771.333z"/>
</g>
<g opacity="0.2">
	<path d="M-1099.119,806.426c0,10.585-6.118,19.169-13.665,19.169l0,0c-7.547,0-13.666-8.584-13.666-19.169V677.671
		c0-10.586,6.118-19.168,13.666-19.168l0,0c7.547,0,13.665,8.582,13.665,19.168V806.426z"/>
</g>
<g opacity="0.2">
	<path d="M-1052.495,840.925c0,10.585-6.118,19.169-13.665,19.169l0,0c-7.547,0-13.665-8.584-13.665-19.169V625.775
		c0-10.586,6.118-19.168,13.665-19.168l0,0c7.547,0,13.665,8.582,13.665,19.168V840.925z"/>
</g>
<g>
	<path d="M-1005.872,806.426c0,10.585-6.118,19.169-13.665,19.169l0,0c-7.547,0-13.665-8.584-13.665-19.169V664.771
		c0-10.586,6.118-19.168,13.665-19.168l0,0c7.547,0,13.665,8.582,13.665,19.168V806.426L-1005.872,806.426z"/>
</g>
<g>
	<path d="M-958.008,840.925c0,10.585-6.118,19.169-13.666,19.169l0,0c-7.547,0-13.665-8.584-13.665-19.169V625.775
		c0-10.586,6.118-19.168,13.665-19.168l0,0c7.548,0,13.666,8.582,13.666,19.168V840.925z"/>
</g>
<g opacity="0.2">
	<path d="M-723.651,806.426c0,10.585-6.118,19.169-13.666,19.169l0,0c-7.546,0-13.664-8.584-13.664-19.169V689.671
		c0-10.586,6.118-19.168,13.664-19.168l0,0c7.548,0,13.666,8.582,13.666,19.168V806.426z"/>
</g>
<g opacity="0.2">
	<path d="M-677.028,767.333c0,10.586-6.117,19.17-13.665,19.17l0,0c-7.547,0-13.665-8.584-13.665-19.17v-47.662
		c0-10.586,6.118-19.168,13.665-19.168l0,0c7.548,0,13.665,8.582,13.665,19.168V767.333z"/>
</g>
<g>
	<path d="M-924.059,645.675c-0.329-0.033-0.657-0.069-0.992-0.069c-7.547,0-13.665,8.581-13.665,19.168v141.652
		c0,10.585,6.118,19.169,13.665,19.169c7.547,0,13.665-8.584,13.665-19.169V691.209c-8.044-12.405-12.737-27.176-12.737-43.03
		C-924.122,647.339-924.084,646.508-924.059,645.675z"/>
	<path d="M-892.092,791.334c0,10.585,6.118,19.169,13.664,19.169c7.548,0,13.666-8.584,13.666-19.169v-66.372
		c-10.012-2.606-19.259-7.123-27.33-13.137V791.334z"/>
	<path opacity="0.2" enable-background="new    " d="M-845.468,727.494v113.431c0,10.585,6.117,19.169,13.664,19.169
		c7.548,0,13.665-8.584,13.665-19.169V722.893c-8.335,2.982-17.304,4.619-26.65,4.619
		C-845.017,727.512-845.24,727.496-845.468,727.494z"/>
	<path opacity="0.2" enable-background="new    " d="M-798.845,712.792v93.634c0,10.585,6.118,19.169,13.666,19.169
		c7.547,0,13.664-8.584,13.664-19.169V678.559C-777.264,692.373-786.812,704.212-798.845,712.792z"/>
	<path d="M-844.789,577.846c-38.781,0-70.333,31.553-70.333,70.333c0,1.204,0.031,2.401,0.091,3.591
		c0.334,6.608,1.604,12.973,3.646,18.98c3.874,11.396,10.576,21.497,19.293,29.433c7.735,7.042,17.048,12.372,27.33,15.424
		c6.128,1.818,12.599,2.824,19.294,2.889c0.228,0.003,0.451,0.018,0.679,0.018c9.43,0,18.425-1.878,26.65-5.26
		c7.085-2.912,13.586-6.951,19.294-11.889c13.87-11.998,23.015-29.307,24.233-48.739c0.093-1.472,0.155-2.951,0.155-4.445
		C-774.456,609.396-806.008,577.846-844.789,577.846z M-818.139,668.676l4.098,4.099l-4.098,4.098l-3.738,3.738l-23.591-23.591
		l-0.443-0.443l-20.94,20.94l-3.093,3.094l-7.836-7.836l3.411-3.411l20.623-20.623l-24.034-24.034l7.836-7.836l24.033,24.034
		l0.443-0.443l23.591-23.591l3.096,3.096l4.74,4.74l-4.098,4.098l-19.937,19.938L-818.139,668.676z"/>
	<path fill="#FFFFFF" d="M-818.139,628.803l4.098-4.098l-4.74-4.74c0.415,1.833,0.643,3.783,0.643,5.811v3.027H-818.139z"/>
	<polygon fill="#FFFFFF" points="-845.468,640.46 -845.911,640.903 -845.468,641.346 	"/>
	<polygon fill="#FFFFFF" points="-814.041,672.773 -818.139,668.676 -818.139,676.871 	"/>
	<polygon fill="#FFFFFF" points="-845.911,656.575 -845.468,657.019 -845.468,656.133 	"/>
</g>
<g opacity="0.2">
	<path d="M113.734-180.152c0,18.27-9.401,33.084-21,33.084l0,0c-11.598,0-21-14.814-21-33.084v-109.869
		c0-18.27,9.403-33.081,21-33.081l0,0c11.598,0,21,14.811,21,33.081V-180.152z"/>
</g>
<g opacity="0.2">
	<path d="M195.198-119.59c0,18.27-9.401,33.084-21,33.084l0,0c-11.599,0-21-14.814-21-33.084v-222.206
		c0-18.27,9.402-33.081,21-33.081l0,0c11.599,0,21,14.811,21,33.081V-119.59z"/>
</g>
<g opacity="0.2">
	<path d="M275.662-60.811c0,18.267-9.402,33.081-21,33.081l0,0c-11.598,0-21-14.814-21-33.081v-371.31c0-18.27,9.402-33.08,21-33.08
		l0,0c11.599,0,21,14.811,21,33.08V-60.811z"/>
</g>
<g>
	<path d="M358.708-119.59c0,18.27-10.558,33.084-23.583,33.084l0,0c-13.024,0-23.583-14.814-23.583-33.084v-244.466
		c0-18.27,10.559-33.081,23.583-33.081l0,0c13.025,0,23.583,14.811,23.583,33.081V-119.59z"/>
</g>
<g>
	<path d="M441.312-60.05c0,18.267-10.559,33.081-23.584,33.081l0,0c-13.024,0-23.584-14.814-23.584-33.081v-371.31
		c0-18.27,10.56-33.081,23.584-33.081l0,0c13.025,0,23.584,14.811,23.584,33.081V-60.05z"/>
</g>
<g opacity="0.2">
	<path d="M843.186-119.59c0,18.27-9.402,33.084-21.003,33.084l0,0c-11.596,0-20.998-14.814-20.998-33.084v-201.497
		c0-18.269,9.402-33.08,20.998-33.08l0,0c11.601,0,21.003,14.811,21.003,33.08V-119.59z"/>
</g>
<g opacity="0.2">
	<path d="M923.646-187.055c0,18.269-9.399,33.083-21,33.083l0,0c-11.598,0-21-14.814-21-33.083v-82.257
		c0-18.269,9.402-33.08,21-33.08l0,0c11.601,0,21,14.811,21,33.08V-187.055z"/>
</g>
<g>
	<path d="M499.902-397.015c-0.568-0.058-1.135-0.122-1.711-0.122c-13.024,0-23.584,14.811-23.584,33.081v244.466
		c0,18.27,10.56,33.084,23.584,33.084s23.582-14.814,23.582-33.084v-198.842c-13.882-21.409-21.98-46.9-21.98-74.262
		C499.793-394.144,499.857-395.578,499.902-397.015z"/>
	<path d="M555.071-145.636c0,18.27,10.559,33.084,23.581,33.084c13.025,0,23.585-14.814,23.585-33.084v-114.545
		c-17.278-4.498-33.236-12.293-47.166-22.671V-145.636z"/>
	<path opacity="0.2" enable-background="new    " d="M638.117-255.811V-60.05c0,18.267,9.401,33.081,21,33.081
		c11.6,0,21-14.814,21-33.081v-203.702c-12.81,5.147-26.592,7.972-40.956,7.972C638.812-255.78,638.467-255.807,638.117-255.811z"/>
	<path opacity="0.2" enable-background="new    " d="M718.582-281.184v161.594c0,18.27,9.401,33.084,21.001,33.084
		c11.598,0,20.999-14.814,20.999-33.084v-220.674C751.746-316.423,737.072-295.991,718.582-281.184z"/>
	<path d="M636.707-514.076c-66.93,0-121.382,54.453-121.382,121.382c0,2.078,0.054,4.144,0.157,6.195
		c0.575,11.407,2.767,22.388,6.291,32.758c6.686,19.668,18.252,37.1,33.298,50.795c13.35,12.153,29.421,21.353,47.166,26.617
		c10.575,3.14,21.742,4.876,33.298,4.985c0.393,0.005,0.778,0.03,1.172,0.03c16.272,0,31.798-3.241,45.993-9.077
		c12.228-5.026,23.446-11.997,33.298-20.518c23.938-20.707,39.719-50.576,41.822-84.115c0.159-2.54,0.269-5.093,0.269-7.671
		C758.089-459.623,703.636-514.076,636.707-514.076z M682.7-357.32l7.072,7.072l-7.072,7.072l-6.451,6.452l-40.714-40.713
		l-0.766-0.765l-36.14,36.141l-5.337,5.338l-13.523-13.523l5.888-5.887l35.592-35.591l-41.479-41.479l13.523-13.523l41.477,41.479
		l0.766-0.765l40.714-40.713l5.343,5.343l8.182,8.181l-7.072,7.072l-34.406,34.407L682.7-357.32z"/>
	<path fill="#FFFFFF" d="M682.7-426.133l7.072-7.072l-8.182-8.181c0.716,3.163,1.108,6.529,1.108,10.026L682.7-426.133
		L682.7-426.133z"/>
	<polygon fill="#FFFFFF" points="635.535,-406.015 634.771,-405.25 635.535,-404.486 	"/>
	<polygon fill="#FFFFFF" points="634.771,-378.203 635.535,-377.438 635.535,-378.967 	"/>
</g>
<path opacity="0.6" fill="#689DA1" enable-background="new    " d="M129.837,553.086c0,15.326-8.954,27.754-20,27.754l0,0
	c-11.046,0-20-12.428-20-27.754v-92.173c0-15.328,8.954-27.753,20-27.753l0,0c11.046,0,20,12.425,20,27.753V553.086z"/>
<path opacity="0.6" fill="#689DA1" enable-background="new    " d="M208.017,604.146c0,15.325-8.954,27.754-20,27.754l0,0
	c-11.046,0-20-12.429-20-27.754v-186.42c0-15.328,8.955-27.752,20-27.752l0,0c11.046,0,20,12.425,20,27.752V604.146z"/>
<path opacity="0.6" fill="#689DA1" enable-background="new    " d="M286.198,654.094c0,15.327-8.954,27.756-20,27.756l0,0
	c-11.045,0-20-12.429-20-27.756V342.588c0-15.328,8.955-27.753,20-27.753l0,0c11.046,0,20,12.425,20,27.753V654.094z"/>
<path d="M364.379,604.146c0,15.325-8.954,27.754-20,27.754l0,0c-11.045,0-20-12.429-20-27.754V399.052
	c0-15.328,8.954-27.753,20-27.753l0,0c11.046,0,20,12.425,20,27.753V604.146z"/>
<path d="M444.73,654.094c0,15.327-8.954,27.756-20,27.756l0,0c-11.046,0-20-12.429-20-27.756V342.588
	c0-15.328,8.954-27.753,20-27.753l0,0c11.046,0,20,12.425,20,27.753V654.094z"/>
<path d="M522.91,604.146c0,15.325-8.953,27.754-20,27.754l0,0c-11.045,0-20-12.429-20-27.754V399.052
	c0-15.328,8.955-27.753,20-27.753l0,0c11.047,0,20,12.425,20,27.753V604.146z"/>
<g>
	<path fill="none" d="M596.758,381.812l1.872-1.873l36.14-36.141l0.766,0.765l40.714,40.713l6.451-6.452l7.072-7.072l-7.072-7.072
		l-34.405-34.402l34.406-34.407l7.072-7.072l-8.182-8.181l-5.343-5.343l-40.714,40.713l-0.766,0.765l-41.477-41.479l-13.523,13.523
		l41.479,41.479l-35.592,35.591l-5.464,5.463c0.297-0.018,0.596-0.031,0.896-0.031C587.439,371.299,593.094,375.409,596.758,381.812
		z"/>
	<path d="M561.091,604.146c0,15.325,8.954,27.754,19.999,27.754c11.047,0,20.001-12.429,20.001-27.754V445.313
		c-14.711-4.524-28.245-11.758-40-21.14V604.146z"/>
	<path d="M636.707,207.924c-66.93,0-121.382,54.453-121.382,121.382c0,2.078,0.054,4.144,0.157,6.195
		c0.575,11.407,2.767,22.388,6.291,32.758c6.686,19.668,18.252,37.101,33.298,50.795c1.947,1.773,3.96,3.475,6.02,5.119v-25.121
		c0-14.91,8.474-27.07,19.103-27.722l5.464-5.463l35.592-35.591l-41.479-41.479l13.523-13.523l41.477,41.479l0.766-0.765
		l40.714-40.713l5.343,5.343l8.182,8.181l-7.072,7.072l-34.406,34.407L682.7,364.68l7.072,7.072l-7.072,7.072l-6.451,6.452
		l-40.714-40.713l-0.766-0.765l-36.14,36.141l-1.872,1.873c2.71,4.735,4.333,10.723,4.333,17.24v46.261
		c0.383,0.118,0.762,0.244,1.146,0.358c10.575,3.14,21.742,4.876,33.298,4.985c0.393,0.005,0.778,0.029,1.172,0.029
		c16.272,0,31.798-3.24,45.993-9.076c12.228-5.026,23.446-11.997,33.298-20.519c23.938-20.707,39.719-50.576,41.822-84.115
		c0.159-2.54,0.269-5.093,0.269-7.671C758.089,262.377,703.636,207.924,636.707,207.924z"/>
	<path d="M596.758,381.812l-3.465,3.465l-13.523-13.523l0.424-0.424c-10.629,0.651-19.103,12.812-19.103,27.722v25.121
		c11.755,9.382,25.289,16.616,40,21.14v-46.261C601.091,392.535,599.468,386.547,596.758,381.812z"/>
</g>
<g opacity="0.6">
	<path fill="#689DA1" enable-background="new    " d="M639.271,654.094c0,15.327,8.953,27.756,20,27.756s20-12.429,20-27.756
		v-196.29c-12.618,4.198-26.053,6.59-40,6.853V654.094z"/>
	<path fill="#689DA1" enable-background="new    " d="M725.144,431.679c-2.482,2.148-5.056,4.195-7.689,6.162v166.306
		c0,15.325,8.954,27.754,20,27.754s20-12.429,20-27.754V399.052c0-2.522-0.247-4.965-0.701-7.288
		C748.795,406.99,738.034,420.528,725.144,431.679z"/>
</g>
<path opacity="0.6" fill="#689DA1" enable-background="new    " d="M837.805,604.146c0,15.325-8.955,27.754-20.001,27.754l0,0
	c-11.045,0-19.999-12.429-19.999-27.754V435.101c0-15.327,8.954-27.753,19.999-27.753l0,0c11.046,0,20.001,12.426,20.001,27.753
	V604.146z"/>
<path opacity="0.6" fill="#689DA1" enable-background="new    " d="M915.984,547.545c0,15.325-8.953,27.754-19.999,27.754l0,0
	c-11.048,0-20.001-12.429-20.001-27.754v-69.008c0-15.329,8.953-27.753,20.001-27.753l0,0c11.046,0,19.999,12.425,19.999,27.753
	V547.545z"/>
</svg>
